# xmcd
#
# Track frame offsets: 
#        150
#        22505
#        47627
#        90372
#        123162
#        147500
#
# Disc length: 2419 seconds
#
# Revision: 3
# Processed by: cddbd v1.5PL3 Copyright (c) Steve Scherf et al.
# Submitted via: ExactAudioCopy v0.95a3
#
DISCID=3d097106
DTITLE=Yellowjackets - Mint Jam [CD1 - Blue)
DYEAR=2002
DGENRE=Jazz
TTITLE0=Les Is Mo
TTITLE1=Boomtown
TTITLE2=Motet
TTITLE3=Mofongo
TTITLE4=Blues For KJ
TTITLE5=Runferyerlife
EXTD=YEAR: 2001
EXTT0=
EXTT1=
EXTT2=
EXTT3=
EXTT4=
EXTT5=
PLAYORDER=
